<svg xmlns="http://www.w3.org/2000/svg" viewBox="0 0 153.82 153.82"><defs><style>.cls-1{fill:none;}.cls-2{fill:#af201a;}.cls-3,.cls-5{fill:#fff;}.cls-4{fill:#d0d0d0;}.cls-5{isolation:isolate;font-size:7px;font-family:AppleSDGothicNeo-Light-KSCpc-EUC-H, Apple SD Gothic Neo;}</style></defs><g id="Calque_2" data-name="Calque 2"><g id="Calque_1-2" data-name="Calque 1"><rect class="cls-1" width="153.82" height="153.82"/><path class="cls-2" d="M97.11,32.76V50.92a.29.29,0,0,1-.06.17c3.29.47,6.57,1.06,9.8,1.81s6.64,1.89,9.21,4a12.72,12.72,0,0,1,4,8.16,33.82,33.82,0,0,1,.2,5.51c0,1.86-.12,3.72-.24,5.57a50.3,50.3,0,0,1-1.65,10.76c-.5,1.74-1.19,3.4-1.86,5.08-.21.52-.43,1.07-.64,1.63a.27.27,0,0,1,0,.19l-.12.23a10.11,10.11,0,0,0-.66,3c0,1.07.34,2.6,1.59,2.92,1.55.4,3-1.18,3.7-2.31A30.93,30.93,0,0,0,122.46,93c.69-1.74,1.36-3.48,2-5.24,1.27-3.48,2.44-7,3.43-10.57a79,79,0,0,0,3.16-21.8,57.63,57.63,0,0,0-3.43-19,55.87,55.87,0,0,0-9.57-16.74,52.48,52.48,0,0,0-15.3-12.52A55.15,55.15,0,0,0,97.13,4.5V14.68Q97.1,23.73,97.11,32.76Z"/><path class="cls-3" d="M93,13.52q-.12,9.21-.07,18.41t.28,18.49a.32.32,0,0,1-.06.18c1.11.12,2.21.26,3.31.41a.29.29,0,0,1,0-.09V4.43a.25.25,0,0,1,0-.16c-1.09-.42-2.18-.81-3.29-1.16h0Q93.09,8.31,93,13.52Z"/><path class="cls-3" d="M59.49,40.34V3.94a.3.3,0,0,1,0-.16c-1.21.43-2.39.91-3.56,1.42a.29.29,0,0,1,.1.23c0,3.36,0,6.73,0,10.09q0,8.91,0,17.83t0,17.84c1.13-.18,2.26-.35,3.39-.5a.29.29,0,0,1,0-.09Q59.5,45.47,59.49,40.34Z"/><path class="cls-2" d="M84.94,30.84q0,9.54-.07,19.09s0,0,0,0c2.58.12,5.16.31,7.73.59a.35.35,0,0,1,0-.12c-.09-3.47-.15-7-.2-10.42q-.14-9.21-.08-18.41T92.55,3.1a.29.29,0,0,1,.07-.18,52.62,52.62,0,0,0-7.87-1.74q.06,5.33.11,10.65Q84.94,21.34,84.94,30.84Z"/><path class="cls-4" d="M118.16,85.35a58.86,58.86,0,0,0,1.37-11.3c.16-3.69.49-7.56-.55-11.16a11.8,11.8,0,0,0-2.23-4.34,12.59,12.59,0,0,0-4.1-3c-3.27-1.62-6.93-2.27-10.5-2.94-4-.75-8-1.33-12.06-1.68s-8.2-.45-12.3-.61a.37.37,0,0,1-.15,0l-.1,0c-2,0-4,0-6,0a120.82,120.82,0,0,0-12.32,1,114.65,114.65,0,0,0-11.51,2.08c-3.33.8-7,2-9.35,4.57s-3.13,6.25-3.22,9.66c-.05,1.89,0,3.79.12,5.68s.19,3.76.38,5.63a39.9,39.9,0,0,0,2.6,11c.46,1.14.93,2.28,1.33,3.43a.27.27,0,0,1,.2.15c2.25,4.33,4.81,8.51,7.46,12.62,4.88,7.57,9.93,15,14.91,22.54,2.48,3.74,4.95,7.49,7.45,11.22,1.18,1.77,2.39,3.53,3.72,5.21.67.85,1.36,1.67,2.09,2.47s1.69,1.57,2.83,1.11h.07l0,0a3.43,3.43,0,0,0,1.41-1.08c.4-.43.79-.88,1.17-1.33.77-.92,1.5-1.87,2.21-2.84,1.37-1.88,2.65-3.83,3.93-5.77l14.78-22.28c4.72-7.12,9.55-14.2,13.49-21.75.35-1,.74-2,1.14-2.95A39.12,39.12,0,0,0,118.16,85.35ZM97.82,95.6a41.28,41.28,0,0,1-4.07,6.57l-4.86,6.93L84,116c-.82,1.17-1.64,2.33-2.45,3.5s-1.51,2.25-2.34,3.32a2.2,2.2,0,0,1-2.64.88,5.49,5.49,0,0,1-2.29-2.16l-4.81-7c-3.18-4.61-6.39-9.2-9.55-13.82a33.66,33.66,0,0,1-3.64-6.38,18.18,18.18,0,0,1-1.06-7.49,17.67,17.67,0,0,1,1.65-7.21,24.2,24.2,0,0,1,2-3.06,23.19,23.19,0,0,1,2.43-2.9,24.33,24.33,0,0,1,9.54-6A18.85,18.85,0,0,1,78.92,67,25.05,25.05,0,0,1,91.18,71.8a20.71,20.71,0,0,1,7.5,10.72A19,19,0,0,1,97.82,95.6Zm3.86-28.4a18.51,18.51,0,0,0-2.65-3,20.08,20.08,0,0,0-13-5.08.32.32,0,1,1,0-.63,20.49,20.49,0,0,1,16.2,8.35C102.49,67.22,101.92,67.53,101.68,67.2Zm3.23,8.36A9.57,9.57,0,0,0,103.64,71c-.2-.35.36-.67.57-.32a10.26,10.26,0,0,1,1.36,4.84A.33.33,0,0,1,104.91,75.56Z"/><path class="cls-2" d="M55.45,41.17q0-8.91,0-17.83t0-17.89a53.5,53.5,0,0,0-7.64,4.21,52.45,52.45,0,0,0-14,13.76,56.44,56.44,0,0,0-8.07,17.34,58.8,58.8,0,0,0-1.82,20,91.9,91.9,0,0,0,4.62,21.64c1.16,3.54,2.47,7,3.85,10.5a26,26,0,0,0,2.11,4.69c.69,1.06,2.18,2.53,3.65,2.08,1.23-.38,1.57-1.89,1.52-3a16.21,16.21,0,0,0-1.49-5.05,51.23,51.23,0,0,1-1.85-5.07,39.81,39.81,0,0,1-1.12-5.4,95.79,95.79,0,0,1-.75-11c-.09-3.41.06-6.94,1.64-10.07,3.15-6.23,11.35-7.42,17.72-8.55l1.66-.28s0,0,0,0Q55.46,46.21,55.45,41.17Z"/><path class="cls-2" d="M67.94,20.45q0-9.46,0-18.93c-.47.09-1,.17-1.42.27a53.53,53.53,0,0,0-6.58,1.85.29.29,0,0,1,.23.29V50.59h0c1.77-.22,3.55-.41,5.33-.56.75-.06,1.5-.1,2.25-.15,0-3.51.08-7,.12-10.52Q67.91,29.92,67.94,20.45Z"/><path class="cls-3" d="M77.41.64c-1,0-1.91,0-2.87.09S72.47.87,71.43,1s-1.92.26-2.88.42c0,0,0,0,0,0q0,5.35,0,10.72,0,9.46,0,18.93t-.18,18.77c3.05-.16,6.1-.2,9.16-.2a.33.33,0,0,1,.15,0l.1,0,5.86.22.57,0q0-5.35.06-10.71,0-9.51,0-19T84.1,1.12v0L83.32,1h0c-1-.11-2-.2-3-.25S78.36.69,77.41.64Z"/><path class="cls-3" d="M77.59,0h.11A.14.14,0,0,0,77.59,0Z"/><path class="cls-3" d="M71.43,1c1-.12,2.07-.2,3.11-.26s1.91,0,2.87-.09h-.19A.32.32,0,0,1,77.11,0c-.86,0-1.71,0-2.57.08-1,.05-2.07.14-3.11.26C71.85.31,71.85.94,71.43,1Z"/><path class="cls-3" d="M39.52,93.37c-.4-1.16-.88-2.29-1.33-3.43a40.43,40.43,0,0,1-2.6-11c-.19-1.87-.3-3.75-.38-5.63s-.17-3.78-.12-5.68c.09-3.41.78-7,3.22-9.66s6-3.77,9.35-4.57a115.16,115.16,0,0,1,11.51-2.08,120.82,120.82,0,0,1,12.32-1c2-.07,4-.05,6-.05l.1,0a.31.31,0,0,1,0-.57.33.33,0,0,0-.15,0c-3.06,0-6.11,0-9.16.2v.24a.33.33,0,0,1-.66,0v-.19q-1.12.06-2.25.15c-1.78.14-3.56.33-5.33.56a.33.33,0,0,1-.63.08c-1.13.15-2.26.32-3.39.5v.07a.33.33,0,0,1-.65,0l-1.66.28c-6.37,1.13-14.57,2.32-17.72,8.55-1.58,3.13-1.73,6.66-1.64,10.07a95.79,95.79,0,0,0,.75,11,39.81,39.81,0,0,0,1.12,5.4,52.17,52.17,0,0,0,1.85,5.07,16.13,16.13,0,0,1,1.49,5c0,1.08-.29,2.6-1.52,3-1.47.45-2.95-1-3.65-2.08a26.3,26.3,0,0,1-2.11-4.69c-1.38-3.47-2.69-7-3.85-10.5a91.9,91.9,0,0,1-4.62-21.64,58.82,58.82,0,0,1,1.82-20,56.55,56.55,0,0,1,8.07-17.34,52.6,52.6,0,0,1,14-13.76A53.5,53.5,0,0,1,55.4,5.47v0A.34.34,0,0,1,56,5.22c1.17-.51,2.36-1,3.56-1.42a.35.35,0,0,1,.38-.13,53,53,0,0,1,6.58-1.85c.47-.1.94-.18,1.42-.27V1.47c0-.39.59-.4.65,0,1-.16,1.92-.31,2.88-.42.41-.05.42-.68,0-.63A54.81,54.81,0,0,0,51.93,6.46,53.07,53.07,0,0,0,36.35,19a56.66,56.66,0,0,0-9.71,16.71A57.51,57.51,0,0,0,23.05,55a78.49,78.49,0,0,0,3.13,22c1,3.65,2.2,7.24,3.51,10.8.65,1.78,1.34,3.55,2,5.31a30,30,0,0,0,2.05,4.64,5.27,5.27,0,0,0,3.4,2.62A2.49,2.49,0,0,0,39.8,99a4.76,4.76,0,0,0,.36-3.21c-.35-.64-.7-1.27-1-1.91A.38.38,0,0,1,39.52,93.37Z"/><path class="cls-3" d="M77.22.63h.19c1,0,1.91,0,2.87.09s2,.14,3,.25c-.39-.07-.38-.67,0-.62h0c-1-.12-2.07-.2-3.11-.26-.86,0-1.71,0-2.57-.08h-.49L77.1,0A.32.32,0,0,0,77.22.63Z"/><path class="cls-3" d="M118.41,87a49.58,49.58,0,0,0,1.65-10.76c.12-1.85.19-3.71.24-5.57a33.82,33.82,0,0,0-.2-5.51,12.72,12.72,0,0,0-4-8.16c-2.56-2.15-6-3.28-9.21-4s-6.51-1.34-9.8-1.81a.34.34,0,0,1-.57-.08c-1.1-.15-2.2-.29-3.31-.41a.35.35,0,0,1-.57-.07c-2.57-.27-5.15-.46-7.73-.59a.33.33,0,0,1-.65,0h0l-.57,0-5.86-.22-.1,0a.31.31,0,0,0,0,.57.33.33,0,0,0,.15,0c4.1.16,8.21.26,12.3.61s8.06.93,12.06,1.68c3.57.67,7.24,1.32,10.5,2.94a12.31,12.31,0,0,1,4.1,3A11.88,11.88,0,0,1,119,62.89c1,3.6.71,7.47.55,11.16a59,59,0,0,1-1.37,11.3,38.54,38.54,0,0,1-1.76,5.32c-.39,1-.79,2-1.14,3l0-.1c.15-.3.55-.13.59.13.21-.56.43-1.1.64-1.63A50.44,50.44,0,0,0,118.41,87Z"/><path class="cls-3" d="M121.25,22.78A53.21,53.21,0,0,0,107.14,9,54.57,54.57,0,0,0,88.22,1.14C86.63.81,85,.56,83.42.37h-.09c-.41,0-.41.55,0,.62h0l.78.11a.33.33,0,0,1,.65,0v.07a53.89,53.89,0,0,1,7.87,1.74c.16-.21.59-.15.59.17,1.11.35,2.21.74,3.29,1.16a.33.33,0,0,1,.6.16V4.5a54.16,54.16,0,0,1,5.62,2.62A52.48,52.48,0,0,1,118,19.64a55.87,55.87,0,0,1,9.57,16.74,57.33,57.33,0,0,1,3.43,19,79,79,0,0,1-3.16,21.8c-1,3.57-2.15,7.09-3.43,10.57-.64,1.76-1.31,3.5-2,5.24a29.55,29.55,0,0,1-2.06,4.68c-.69,1.12-2.16,2.7-3.7,2.31-1.26-.32-1.62-1.85-1.59-2.92a10.11,10.11,0,0,1,.66-3c-.4.77-.82,1.53-1.24,2.29a4.5,4.5,0,0,0,.55,3.19,2.49,2.49,0,0,0,2.83,1,5.75,5.75,0,0,0,3.25-2.89,41.49,41.49,0,0,0,2-4.76c1.39-3.51,2.7-7.05,3.85-10.64a91.43,91.43,0,0,0,4.51-21.9,59.5,59.5,0,0,0-2-20.13A57.12,57.12,0,0,0,121.25,22.78Z"/><path class="cls-3" d="M78.25,148.69h-.07c-1.14.46-2.13-.34-2.83-1.11s-1.43-1.62-2.09-2.47c-1.32-1.68-2.53-3.44-3.72-5.21-2.5-3.73-5-7.48-7.45-11.22-5-7.51-10-15-14.91-22.54C44.53,102,42,97.86,39.72,93.53a.27.27,0,0,0-.2-.15.34.34,0,0,0-.37.47c.33.64.69,1.28,1,1.91,4,7.24,8.64,14.1,13.21,21Q61.1,128.38,68.81,140c1.33,2,2.69,4,4.2,5.86a25.7,25.7,0,0,0,2.34,2.67,2.94,2.94,0,0,0,3,.79l0,0A.31.31,0,0,1,78.25,148.69Z"/><path class="cls-3" d="M115.88,93.84a.33.33,0,0,0,0-.19c0-.27-.44-.43-.59-.13l0,.1c-3.94,7.55-8.77,14.63-13.49,21.75L87,137.65c-1.29,1.94-2.56,3.88-3.93,5.77-.71,1-1.44,1.92-2.21,2.84-.38.45-.77.9-1.17,1.33a3.33,3.33,0,0,1-1.41,1.08l0,0a.31.31,0,0,0,.14.6h.06a5.5,5.5,0,0,0,2.29-1.9c.67-.76,1.3-1.54,1.92-2.34,1.29-1.67,2.48-3.42,3.64-5.17q3.72-5.58,7.42-11.19c4.93-7.44,9.94-14.84,14.77-22.34,2.11-3.27,4.14-6.58,6-10,.42-.76.84-1.52,1.24-2.29A1.71,1.71,0,0,0,115.88,93.84Z"/><path class="cls-3" d="M103.64,71a9.65,9.65,0,0,1,1.27,4.53c0,.4.67.4.66,0a10.2,10.2,0,0,0-1.36-4.84A.32.32,0,0,0,103.64,71Z"/><path class="cls-3" d="M90.25,59a20.51,20.51,0,0,0-4.2-.5.32.32,0,1,0,0,.63,20.06,20.06,0,0,1,13,5.08,18.51,18.51,0,0,1,2.65,3c.24.33.81,0,.57-.32A20.42,20.42,0,0,0,90.25,59Z"/><path class="cls-3" d="M68.6,12.16c0-3.57,0-7.14,0-10.72,0,0,0,0,0,0,0-.35-.65-.34-.65,0v.08q0,9.47,0,18.93t-.1,18.93c0,3.51-.07,7-.12,10.52v.19c0,.4.65.4.66,0v-.24q.12-9.39.18-18.77T68.6,12.16Z"/><path class="cls-3" d="M84.26,20.21q0,9.51,0,19,0,5.36-.06,10.71h0a.33.33,0,0,0,.65,0v0q.07-9.54.07-19.09t-.08-19q0-5.33-.11-10.65V1.12a.33.33,0,0,0-.65,0s0,0,0,0Q84.21,10.66,84.26,20.21Z"/><path class="cls-3" d="M60.14,32.43V3.93a.29.29,0,0,0-.23-.29.35.35,0,0,0-.38.13.25.25,0,0,0-.05.16V50.59a.29.29,0,0,0,0,.09.33.33,0,0,0,.63-.08h0Q60.15,41.52,60.14,32.43Z"/><path class="cls-3" d="M56.09,15.51c0-3.36,0-6.73,0-10.09a.29.29,0,0,0-.1-.23.33.33,0,0,0-.55.23v0q0,8.94,0,17.89t0,17.83c0,3.36,0,6.73,0,10.09v0a.33.33,0,0,0,.65,0v-.07q0-8.93,0-17.84T56.09,15.51Z"/><path class="cls-3" d="M92.28,21.6q0,9.21.08,18.41c0,3.47.12,7,.2,10.42a.27.27,0,0,0,0,.12.35.35,0,0,0,.57.07.28.28,0,0,0,.06-.18Q93,41.2,92.94,32T93,13.54c0-3.47.11-6.95.2-10.42h0c0-.32-.42-.38-.59-.17a.27.27,0,0,0-.07.18Q92.34,12.35,92.28,21.6Z"/><path class="cls-3" d="M96.45,22.59V50.92a.24.24,0,0,0,0,.09.34.34,0,0,0,.57.08.32.32,0,0,0,.06-.17V4.42a.33.33,0,0,0-.6-.16.28.28,0,0,0,0,.16Z"/><path class="cls-3" d="M91.16,71.79A25.09,25.09,0,0,0,78.9,67a18.82,18.82,0,0,0-8.07.78,23.52,23.52,0,0,0-6.76,3.56,24.81,24.81,0,0,0-2.78,2.43,23.93,23.93,0,0,0-2.43,2.9,24.2,24.2,0,0,0-2,3.06,17.67,17.67,0,0,0-1.65,7.21,18.18,18.18,0,0,0,1.06,7.49,33.06,33.06,0,0,0,3.64,6.38c3.16,4.62,6.37,9.21,9.55,13.82l4.81,7a5.48,5.48,0,0,0,2.29,2.16,2.22,2.22,0,0,0,2.64-.88c.83-1.07,1.57-2.21,2.34-3.32S83.2,117.19,84,116l4.86-6.93,4.86-6.93a41.73,41.73,0,0,0,4.07-6.57,19,19,0,0,0,.84-13.1A20.59,20.59,0,0,0,91.16,71.79Zm7.08,20.67a21.68,21.68,0,0,1-3,6.39c-1.41,2.17-3,4.26-4.44,6.38l-9.32,13.28-2.32,3.3A4.12,4.12,0,0,1,78,123.1a1.48,1.48,0,0,1-1.53-.09,8.18,8.18,0,0,1-2.3-2.66L71.92,117,62.7,103.69c-1.41-2-2.88-4.06-4.15-6.2A17.88,17.88,0,0,1,56,90.93a22.62,22.62,0,0,1-.13-3.86c0-.63.07-1.25.14-1.87a16.36,16.36,0,0,1,.24-1.71,15.37,15.37,0,0,1,1.25-3.6A25.45,25.45,0,0,1,59.42,77a22,22,0,0,1,2.33-2.78c3.44-3.5,8.28-6.32,13.37-6.68a23.72,23.72,0,0,1,13.09,3.11A21.09,21.09,0,0,1,97,79.79,19,19,0,0,1,98.24,92.46Z"/><text class="cls-5" transform="matrix(1, 0.3, -0.3, 0.96, 103.6, 46.25)">BiWheel</text></g></g></svg>